<svg xmlns="http://www.w3.org/2000/svg" viewBox="1 1 22 22" width="128" height="128">
  <path fill="#F4212E" d="M22.25 12c0-1.43-.88-2.67-2.19-3.34.46-1.39.2-2.9-.81-3.91s-2.52-1.27-3.91-.81c-.66-1.31-1.91-2.19-3.34-2.19s-2.67.88-3.33 2.19c-1.4-.46-2.91-.2-3.92.81s-1.26 2.52-.8 3.91c-1.31.67-2.2 1.91-2.2 3.34s.89 2.67 2.2 3.34c-.46 1.39-.21 2.9.8 3.91s2.52 1.26 3.91.81c.67 1.31 1.91 2.19 3.34 2.19s2.68-.88 3.34-2.19c1.39.45 2.9.2 3.91-.81s1.27-2.52.81-3.91c1.31-.67 2.19-1.91 2.19-3.34z"/>
  <g stroke="white" stroke-width="2.2" stroke-linecap="round">
    <line x1="9" y1="9" x2="15" y2="15"/>
    <line x1="15" y1="9" x2="9" y2="15"/>
  </g>
</svg>
